<?xml version="1.0" encoding="UTF-8"?>
<svg id="Layer_2" data-name="Layer 2" xmlns="http://www.w3.org/2000/svg" viewBox="0 0 194.57 264.43">
  <defs>
    <style>
      .cls-1 {
        fill: #000;
        stroke-width: 0px;
      }
    </style>
  </defs>
  <g id="Layer_2-2" data-name="Layer 2">
    <path class="cls-1" d="M146.01,182.65c-.14,0-.28,0-.42,0-10.03-.05-24.01-2.12-33.67-11.65-1.86-1.83-3.17-3.59-4-5.39-1.26-2.71-1.71-6.04-1.37-10.18.64-7.64,3.55-15.02,8.2-20.79,4.85-6,11.53-10.26,18.81-11.98,3.76-.89,7.58-1.11,11.82-1.28,5.08-.21,10.03-.34,14.85.39.27.04.46.3.42.57-.04.27-.3.46-.57.42-4.74-.72-9.44-.6-14.66-.38-4.19.17-7.95.39-11.63,1.26-7.07,1.67-13.56,5.81-18.26,11.64-4.53,5.61-7.37,12.8-7.99,20.24-.33,3.96.09,7.12,1.28,9.67.79,1.68,2.03,3.35,3.8,5.1,9.42,9.29,23.13,11.31,32.97,11.36.14,0,.28,0,.42,0,6.79,0,12.41-.89,17.17-2.72,6.06-2.33,13.82-6.96,16.35-15.81,2.15-7.52,2.63-15.57,1.41-23.29-.04-.27.14-.53.42-.57.27-.04.53.14.57.42,1.25,7.86.75,16.07-1.44,23.72-2.64,9.25-10.68,14.06-16.96,16.47-4.88,1.87-10.62,2.79-17.53,2.79Z"/>
    <path class="cls-1" d="M131.24,28.57c-.1,0-.19,0-.29-.01-.56-.05-.8-.34-.91-.57-.21-.45-.01-.92.09-1.15.54-1.25,1.01-2.47.89-3.69-.03-.29-.09-.58-.15-.87-.09-.43-.18-.88-.18-1.35,0-.99.57-2.07,1.5-2.08h.01c.6,0,1.15.49,1.28,1.15l.1.51c.39,1.94.83,4.15.48,6.37-.05.31-.12.66-.35.93-.25.3-.59.4-.82.46-.51.14-1.07.3-1.66.3ZM130.94,27.55s.05,0,.1.01c.51.05,1.06-.11,1.59-.25.15-.04.27-.08.32-.14.07-.09.11-.33.13-.45.32-2.04-.08-4.06-.48-6.02l-.1-.52h0c-.04-.21-.2-.34-.3-.34h0c-.23,0-.52.51-.52,1.08,0,.38.08.75.16,1.15.07.32.13.65.16.98.14,1.45-.38,2.81-.97,4.18-.08.19-.1.28-.1.31h0Z"/>
    <g>
      <circle class="cls-1" cx="127.27" cy="21.9" r=".44"/>
      <path class="cls-1" d="M127.27,22.83c-.52,0-.94-.42-.94-.94s.42-.94.94-.94.94.42.94.94-.42.94-.94.94ZM127.27,21.83v.12l.06-.06s-.03-.06-.06-.06Z"/>
    </g>
    <g>
      <circle class="cls-1" cx="138.58" cy="20.85" r=".44"/>
      <path class="cls-1" d="M138.58,21.79c-.52,0-.94-.42-.94-.94s.42-.94.94-.94.94.42.94.94-.42.94-.94.94ZM138.58,20.79v.12l.06-.06s-.03-.06-.06-.06Z"/>
    </g>
    <path class="cls-1" d="M125.67,27.65c-2.55,0-4.62-2.35-4.62-5.25s2.08-5.25,4.62-5.25,4.62,2.35,4.62,5.25-2.08,5.25-4.62,5.25ZM125.67,18.15c-2,0-3.62,1.91-3.62,4.25s1.63,4.25,3.62,4.25,3.62-1.91,3.62-4.25-1.63-4.25-3.62-4.25Z"/>
    <path class="cls-1" d="M138.14,26.54c-2.55,0-4.62-2.35-4.62-5.25s2.08-5.25,4.62-5.25,4.62,2.35,4.62,5.25-2.08,5.25-4.62,5.25ZM138.14,17.04c-2,0-3.62,1.91-3.62,4.25s1.63,4.25,3.62,4.25,3.62-1.91,3.62-4.25-1.63-4.25-3.62-4.25Z"/>
    <path class="cls-1" d="M129.54,22.07c-.12,0-.25-.05-.34-.14-.2-.19-.21-.51-.02-.71,1.3-1.38,3.35-1.89,5.11-1.29.26.09.4.38.31.64-.09.26-.38.4-.64.31-1.37-.47-3.04-.05-4.06,1.03-.1.1-.23.16-.36.16Z"/>
    <path class="cls-1" d="M121.51,22.63c-.26,0-.48-.2-.5-.47-.02-.28.19-.51.47-.53l2.68-.17c.3-.02.51.19.53.47.02.28-.19.51-.47.53l-2.68.17s-.02,0-.03,0Z"/>
    <path class="cls-1" d="M142.42,20.58c-.25,0-.47-.19-.5-.45-.03-.27.17-.52.44-.55l9.93-1.05c.29-.03.52.17.55.44.03.27-.17.52-.44.55l-9.93,1.05s-.04,0-.05,0Z"/>
    <path class="cls-1" d="M125.24,30.75c-.23,0-.44-.16-.49-.4-1.28-6.05-.81-12.58,1.32-18.38.1-.26.39-.39.64-.3.26.09.39.38.3.64-2.07,5.63-2.52,11.96-1.28,17.83.06.27-.12.54-.39.59-.04,0-.07.01-.1.01Z"/>
    <path class="cls-1" d="M147.59,16.88c-.16,0-.33-.01-.49-.04-.81-.13-1.56-.61-2.07-1.33-.51-.72-.72-1.59-.58-2.39.07-.36.19-.69.31-1.01.07-.2.15-.39.2-.59.06-.23.18-.79-.08-1.13-.3-.39-1-.37-1.39-.33-.71.08-1.4.27-2.05.58-.22.1-.45.22-.68.34-1.08.56-2.31,1.19-3.54.67-1.34-.57-1.79-2.22-1.65-3.61.02-.19.05-.38.07-.57.1-.7.2-1.36-.09-1.86-.24-.43-.79-.72-1.4-.74-.53-.01-1.12.14-1.83.5-1.95.97-3.55,2.68-4.38,4.69-.1.26-.4.38-.65.27-.26-.11-.38-.4-.27-.65.92-2.24,2.69-4.13,4.86-5.21.87-.43,1.59-.62,2.31-.6.96.03,1.82.51,2.24,1.25.45.8.32,1.7.21,2.5-.03.18-.05.36-.07.54-.11,1.02.17,2.21,1.04,2.58.81.34,1.72-.14,2.69-.64.24-.13.48-.25.72-.36.75-.35,1.54-.57,2.36-.66,1.05-.12,1.84.13,2.29.71.39.5.48,1.21.25,2.01-.06.23-.15.45-.23.67-.11.29-.21.57-.26.84-.1.54.05,1.14.41,1.64.36.5.87.83,1.41.92.75.12,1.61-.17,2.3-.77.58-.51,1.07-1.22,1.52-2.24.11-.25.41-.36.66-.25.25.11.37.41.25.66-.52,1.15-1.08,1.97-1.78,2.58-.77.67-1.72,1.04-2.63,1.04Z"/>
    <path class="cls-1" d="M153.21,15.78c-.14,0-.28-.06-.38-.17-.18-.21-.16-.52.05-.71.9-.78,1.49-1.9,1.62-3.08.04-.33.07-1.14-.41-1.51-.45-.35-1.2-.17-1.74.16-.28.17-.54.38-.79.58-.39.31-.79.63-1.27.86-.92.44-2.24.42-2.87-.5-.48-.7-.32-1.59-.16-2.19.05-.19.1-.38.16-.56.15-.52.29-1.01.33-1.51.06-.7-.11-1.31-.47-1.67-.36-.36-.9-.49-1.29-.53-2.2-.24-4.21,1.34-6.06,2.98-.21.18-.52.16-.71-.04-.18-.21-.16-.52.04-.71,1.93-1.71,4.22-3.51,6.83-3.22.79.09,1.44.37,1.89.82.57.57.84,1.47.75,2.46-.05.6-.21,1.16-.37,1.7-.05.18-.1.36-.15.54-.11.42-.23,1.01.02,1.38.3.44,1.07.43,1.61.16.38-.18.72-.45,1.08-.74.29-.23.58-.46.89-.65.78-.48,2-.79,2.88-.1.84.66.85,1.79.78,2.41-.16,1.43-.87,2.79-1.95,3.73-.09.08-.21.12-.33.12Z"/>
    <path class="cls-1" d="M151.92,7.51c-.52,0-1.01-.13-1.43-.52-.73-.69-.65-1.67-.57-2.53.04-.41.07-.79.03-1.13-.12-1-1.02-1.75-1.85-2.05-.84-.3-1.81-.35-3.17-.15-2.43.36-4.81,1.25-6.88,2.59-.23.15-.54.09-.69-.15-.15-.23-.08-.54.15-.69,2.18-1.42,4.7-2.37,7.28-2.74,1.03-.15,2.38-.26,3.66.2,1.36.5,2.34,1.62,2.5,2.87.06.45.02.9-.02,1.34-.07.84-.09,1.38.26,1.71.4.38,1.05.27,1.99.06.98-.22,2.09-.46,2.9.31.2.19.21.51.01.71-.19.2-.51.21-.71.01-.4-.38-1.01-.28-1.99-.06-.47.11-.98.22-1.46.22Z"/>
    <path class="cls-1" d="M155.24,22.9c-.25,0-.46-.18-.5-.43-.04-.27.16-.52.43-.56.9-.12,1.64-.51,2.03-1.07.36-.53.41-1.42-.11-1.86-.14-.12-.32-.21-.52-.31-.14-.07-.29-.15-.43-.23-.57-.35-.88-.85-.85-1.38.01-.29.13-.58.36-.87.44-.56,1.03-.9,1.6-1.22.32-.18.62-.35.88-.55.91-.69,1.46-2.1.83-3.1-.39-.62-1.2-1.02-2.18-1.09-.28-.02-.48-.26-.46-.53.02-.28.26-.48.53-.46,1.32.09,2.4.66,2.96,1.56.94,1.51.18,3.47-1.07,4.42-.32.24-.66.44-1,.62-.51.29-.99.56-1.31.96-.12.16-.15.25-.15.31,0,.14.14.33.38.48.11.07.23.13.35.19.23.12.48.25.71.44.87.73,1,2.16.29,3.19-.55.81-1.52,1.34-2.72,1.5-.02,0-.04,0-.07,0Z"/>
    <path class="cls-1" d="M150.35,29.24c-.8,0-1.61-.48-2.38-1.41-.18-.21-.15-.53.06-.7.21-.17.53-.15.7.06.45.54,1.13,1.16,1.8,1.03.3-.06.61-.27.98-.68,1.31-1.46,1.89-3.56,1.52-5.49-.1-.52-.38-1.45-1.09-1.74-.47-.2-1.12-.06-1.65.34-.53.41-.91,1.01-1.27,1.65-.14.24-.45.32-.68.18-.24-.14-.32-.44-.18-.68.4-.69.85-1.41,1.53-1.94.82-.63,1.83-.82,2.65-.48.85.35,1.44,1.23,1.68,2.48.43,2.23-.25,4.66-1.76,6.35-.32.36-.83.86-1.53.99-.13.02-.25.04-.38.04Z"/>
    <path class="cls-1" d="M147.67,51.75c-.27,0-.49-.21-.5-.48-.26-7.38-.22-14.87.11-22.24.01-.28.22-.5.52-.48.28.01.49.25.48.52-.33,7.35-.36,14.81-.1,22.16,0,.28-.21.51-.48.52,0,0-.01,0-.02,0Z"/>
    <path class="cls-1" d="M136.61,42.2c-.21,0-.41-.14-.48-.35-.08-.26.07-.54.33-.63,4.17-1.3,7.4-5.09,8.02-9.41.04-.27.3-.46.57-.42.27.04.46.29.42.57-.68,4.7-4.18,8.81-8.71,10.23-.05.02-.1.02-.15.02Z"/>
    <path class="cls-1" d="M135.88,35.08c-.19,0-.38-.11-.46-.3-.11-.25,0-.55.26-.66.95-.41,1.68-1.33,1.85-2.35.05-.27.31-.45.58-.41.27.05.45.31.41.58-.24,1.36-1.17,2.55-2.44,3.09-.06.03-.13.04-.2.04Z"/>
    <path class="cls-1" d="M128.88,31.22c-3.21,0-6.43-.17-9.6-.87-.84-.19-1.68-.41-2.52-.63-2.7-.71-5.5-1.45-8.16-.86-.27.06-.54-.11-.6-.38-.06-.27.11-.54.38-.6,2.9-.64,5.81.13,8.63.87.83.22,1.66.44,2.48.62,4.63,1.03,9.47.89,14.16.76h.01c.27,0,.49.21.5.49,0,.28-.21.51-.49.51-1.59.04-3.19.09-4.81.09Z"/>
    <path class="cls-1" d="M136.16,52.45c-.27,0-.5-.22-.5-.5-.04-6.21-.3-12.48-.77-18.67-1.59-.12-3.23-.12-4.94-.11-2.51,0-5.11.02-7.68-.39-1.61-.25-3.22-.68-4.79-1.08-3.4-.88-6.61-1.72-9.86-1.05-.26.06-.54-.12-.59-.39-.06-.27.12-.54.39-.59,3.47-.73,6.95.18,10.32,1.06,1.54.4,3.13.81,4.69,1.06,2.49.39,5.04.38,7.52.38,1.89,0,3.68-.01,5.46.15.24.02.43.22.45.46.5,6.34.77,12.79.81,19.16,0,.28-.22.5-.5.5h0Z"/>
    <path class="cls-1" d="M136.57,55.45c-.25,0-.46-.18-.49-.43-.14-1.04-.25-2.08-.33-3.12-.02-.28.19-.52.46-.54.27-.02.52.19.54.46.07,1.01.18,2.04.32,3.06.04.27-.16.53-.43.56-.02,0-.04,0-.07,0Z"/>
    <path class="cls-1" d="M132.72,55.97c-.18,0-.35-.09-.44-.26-1.92-3.47-4.19-6.76-6.75-9.79l-.16-.19c-.52-.61-1.06-1.24-1.47-1.97-.35-.61-.29-1.21.16-1.49.24-.15.66-.25,1.25.18,4.08,3,7.93,6.37,11.44,10.02.19.2.19.52-.01.71-.2.19-.52.19-.71-.01-3.45-3.59-7.22-6.9-11.22-9.85.37.62.84,1.17,1.33,1.76l.17.2c2.6,3.08,4.91,6.42,6.86,9.95.13.24.05.55-.2.68-.08.04-.16.06-.24.06Z"/>
    <path class="cls-1" d="M131.33,56.89c-.13,0-.27-.05-.37-.16l-10.12-10.88c-.07-.08-.19-.2-.25-.37-.09-.23-.06-.48.07-.71.16-.28.47-.48.8-.54.66-.12,1.28.23,1.65.44,1.7.96,3.37,2.02,4.97,3.15.23.16.28.47.12.7-.16.23-.47.28-.7.12-1.58-1.11-3.22-2.15-4.89-3.09-.34-.19-.7-.38-.99-.33,0,0-.01,0-.02,0l10.08,10.83c.19.2.18.52-.03.71-.1.09-.22.13-.34.13Z"/>
    <path class="cls-1" d="M129.92,59.37c-.15,0-.3-.07-.4-.2-2.54-3.34-5.59-6.24-9.05-8.63-.74-.51-1.02-1.05-.85-1.61.19-.63.9-.93,1.81-.77,1.5.27,2.94.89,4.16,1.8.22.16.27.48.1.7-.16.22-.48.27-.7.1-1.1-.82-2.39-1.37-3.74-1.61-.38-.07-.66,0-.67.07-.01.04.05.21.46.5,3.55,2.44,6.67,5.42,9.27,8.85.17.22.12.53-.09.7-.09.07-.2.1-.3.1Z"/>
    <path class="cls-1" d="M135.23,79.88c-.28,0-.5-.22-.5-.5,0-.98.1-1.97.21-2.93.13-1.22.27-2.47.17-3.67-.09-1.04-.21-2.25-.5-3.4-.15-.57-.37-1.29-.85-1.77-.17-.18-.38-.32-.58-.47-.15-.11-.31-.23-.45-.35-.62-.53-1.08-1.2-1.47-1.79l-.43-.64c-2.15-3.22-4.38-6.54-7.31-9.07-.88-.76-.84-1.37-.64-1.75.25-.48.86-.69,1.55-.54.58.13,1.12.41,1.56.8.21.19.22.5.04.71-.18.21-.5.22-.71.04-.31-.28-.69-.48-1.1-.57-.25-.06-.43,0-.44.03-.01.02.02.2.41.53,3.03,2.62,5.3,6,7.49,9.28l.43.64c.36.54.77,1.15,1.29,1.59.13.11.26.21.4.31.24.17.48.35.7.58.65.66.93,1.54,1.11,2.23.31,1.22.43,2.48.52,3.57.11,1.29-.03,2.59-.17,3.86-.1.93-.2,1.89-.2,2.82,0,.28-.22.5-.5.5h0Z"/>
    <path class="cls-1" d="M141.82,64.04c-.16,0-.32-.08-.42-.23-.15-.23-.09-.54.14-.69.87-.57,1.06-1.75.96-2.58-.11-.96-.53-1.85-.97-2.79l-.14-.3c-1.49-3.21-2.6-6.59-3.29-10.06-.12-.61-.23-1.15-.53-1.54-.24-.3-.71-.49-.98-.31-.23.15-.54.09-.69-.14-.15-.23-.09-.54.14-.69.77-.52,1.81-.13,2.33.52.45.58.6,1.29.72,1.92.69,3.42,1.77,6.73,3.22,9.87l.14.29c.46.97.93,1.98,1.06,3.1.17,1.47-.38,2.86-1.4,3.53-.08.06-.18.08-.27.08Z"/>
    <path class="cls-1" d="M147.06,78.56c-.22,0-.42-.15-.48-.37l-4.29-15.73c-.07-.27.08-.54.35-.61.27-.07.54.08.61.35l4.29,15.73c.07.27-.08.54-.35.61-.04.01-.09.02-.13.02Z"/>
    <path class="cls-1" d="M107.23,30.96c-.09,0-.18-.02-.26-.07-2.67-1.6-6.01-1.64-8.93-1.55-1.1.03-2.2.08-3.3.13-5.73.26-11.65.53-17.08-1.5-.26-.1-.39-.38-.29-.64.1-.26.39-.39.64-.29,5.24,1.96,11.06,1.69,16.68,1.44,1.11-.05,2.22-.1,3.32-.13,3.06-.09,6.57-.05,9.48,1.69.24.14.31.45.17.69-.09.16-.26.24-.43.24Z"/>
    <path class="cls-1" d="M107.04,28.73c-.1,0-.21-.03-.3-.1-2.09-1.55-4.96-2.26-8.52-2.09-1.77.08-3.57.36-5.3.63-1.27.2-2.58.4-3.89.53-3.86.38-6.92-.06-9.35-1.34-.24-.13-.34-.43-.21-.68.13-.25.43-.34.68-.21,2.25,1.19,5.12,1.59,8.78,1.23,1.28-.12,2.58-.33,3.83-.52,1.76-.27,3.58-.55,5.41-.64,3.8-.18,6.88.6,9.16,2.29.22.16.27.48.1.7-.1.13-.25.2-.4.2Z"/>
    <path class="cls-1" d="M107.54,70.62c-.28,0-.5-.22-.5-.5l-.11-39.5c0-.28.22-.5.5-.5h0c.28,0,.5.22.5.5l.11,39.5c0,.28-.22.5-.5.5h0Z"/>
    <path class="cls-1" d="M84.07,48.18c-.06,0-.12-.01-.18-.03-.26-.1-.39-.39-.29-.65,1.43-3.68,2.83-7.37,4.23-11.06.06-.16.14-.36.12-.49.05-.04.02-.03-.05.04-.78.69-1.37,1.64-1.86,2.46-1.3,2.2-2.44,4.53-3.38,6.91-.1.25-.37.38-.63.29-.25-.09-.39-.36-.32-.61l.3-1.01c.66-2.24,1.49-5.04,2.26-7.88,0-.02.01-.05.02-.07-1.44,2.46-2.69,5.06-3.74,7.72-.21.55-.41,1.05-.75,1.51-.44.58-1.04.94-1.66.98-.31.01-.51-.19-.53-.47-.02-.28.19-.51.47-.53.32-.02.66-.24.92-.58.26-.35.42-.77.6-1.22,1.1-2.8,2.4-5.48,3.89-8.03.11-.18.39-.67.93-.67h0c.27,0,.5.12.66.33.27.36.25.92.15,1.28-.25.93-.52,1.86-.77,2.77.23-.42.47-.83.71-1.24.53-.89,1.17-1.91,2.06-2.7.1-.09.32-.29.63-.33.59-.08,1,.41,1.07.89.06.39-.07.74-.17,1-1.39,3.69-2.8,7.38-4.23,11.07-.08.2-.27.32-.47.32Z"/>
    <path class="cls-1" d="M82.19,60.91c-.25,0-.46-.19-.5-.44-.03-.27.16-.52.43-.56.8-.1,1.39-.9,1.92-1.76,2.2-3.62,4.11-7.45,5.65-11.4.17-.42.13-.77.08-.82-.04-.02-.21.04-.48.42l-3.47,4.79c-.15.21-.43.27-.65.14-.22-.13-.31-.4-.21-.63.86-2,1.74-3.99,2.62-5.98.89-2.02,1.77-4.04,2.65-6.06.17-.38.12-.5.12-.5h0c-.06,0-.31.12-.54.38-1.9,2.21-3.21,4.9-4.49,7.5-.12.25-.42.35-.67.23-.25-.12-.35-.42-.23-.67,1.3-2.65,2.65-5.4,4.63-7.71.14-.16.65-.7,1.27-.72.29-.02.54.09.74.29.36.36.39.9.09,1.6-.88,2.02-1.76,4.04-2.65,6.06-.25.58-.51,1.16-.76,1.74l.76-1.04c.5-.68,1.02-.95,1.55-.8.29.08.51.27.64.54.3.6.03,1.39-.06,1.61-1.57,4-3.5,7.89-5.73,11.56-.62,1.02-1.42,2.08-2.65,2.23-.02,0-.04,0-.06,0Z"/>
    <path class="cls-1" d="M69.11,67.94c-.08,0-.16-.02-.24-.06-.24-.13-.33-.44-.2-.68l5.22-9.58c.51-1.95.44-3.99.37-6.15-.05-1.48-.1-3.01.05-4.52.06-.57.15-1.17.41-1.73.34-.74.92-1.27,1.47-1.79.48-.45.92-.87,1.2-1.38.13-.24.43-.33.68-.21.24.13.34.43.21.68-.35.66-.88,1.16-1.4,1.64-.51.48-.99.92-1.25,1.49-.2.43-.27.93-.32,1.4-.14,1.44-.1,2.94-.05,4.39.07,2.16.14,4.39-.42,6.5-.01.04-.03.08-.04.11l-5.25,9.63c-.09.17-.26.26-.44.26Z"/>
    <path class="cls-1" d="M77.69,72.86c-.06,0-.13-.01-.19-.04-.26-.1-.38-.4-.27-.65,1.6-3.91,3.16-7.91,4.63-11.89.1-.26.38-.39.64-.3.26.1.39.38.29.64-1.48,3.99-3.04,8-4.64,11.92-.08.19-.27.31-.46.31Z"/>
    <path class="cls-1" d="M78.21,45.9c-.27,0-.49-.21-.5-.48l-.78-15.75c-.03-.67-.08-1.67.47-2.43.17-.22.48-.27.7-.11.22.16.27.48.11.7-.32.44-.32,1.1-.28,1.79l.78,15.76c.01.28-.2.51-.47.52,0,0-.02,0-.02,0Z"/>
    <path class="cls-1" d="M80.25,67.38c-.24,0-.45-.18-.49-.42-.04-.27.14-.53.42-.57,3.7-.59,7.47-.73,11.21-.43.27.02.48.26.46.54-.02.27-.24.48-.54.46-3.66-.3-7.35-.16-10.97.42-.03,0-.05,0-.08,0Z"/>
    <g>
      <path class="cls-1" d="M68.08,67.04c3.07,1.61,6.12,3.24,9.16,4.9.69.38,1.49.97,1.34,1.75l-11.48,24.82s-.32.87.45,1.22c0,0,.71.33,1.04-.64,0,0,8.66-18.07,9.02-19.6,0,0,11.21-11.52,12.23-13.06,6.07-.27,12.21,1.09,17.4,3.74.98.42,2.09.19,3.14.02,8.2-1.36,16.56.71,24.46,3.28.33,1.95.46,3.94.39,5.92l-2.3.26s-1.67.08-1.43,2.3c-1.28,13.11-.94,26.45.47,39.65-16.97,1.28-34.22-1.26-50.09-7.39-.74-.29-1.6-.74-1.65-1.53-.03-.44.22-.85.47-1.23,7.77-12.06,14.15-23.4,18.59-37.84,0,0,.27-.96-.45-1.25,0,0-.93-.4-1.34,1.09-2.6,7.42-5.21,14.89-8.98,21.79,0,0-12.02,11.34-21.63,14.13,0,0-8.4-2.1-10.43-2.3,0,0-5.53-2.67-4.09-13.02,0,0,1.1-6.38,10.17-19.49l5.55-7.54Z"/>
      <path class="cls-1" d="M123.42,122.42c-14.22,0-28.48-2.63-41.72-7.74-.47-.18-1.89-.73-1.97-1.97-.04-.62.3-1.15.54-1.53,7.96-12.36,14.16-23.5,18.53-37.72,0,0,.14-.52-.16-.64,0,0-.12-.04-.24.03-.17.09-.33.35-.43.73-2.57,7.36-5.23,14.93-9.02,21.9-.03.05-.06.09-.1.12-.49.47-12.22,11.46-21.84,14.25-.09.02-.18.03-.26,0-.08-.02-8.38-2.09-10.36-2.29-.06,0-.12-.02-.17-.05-.24-.12-5.84-2.95-4.37-13.54.05-.28,1.23-6.65,10.25-19.7l5.56-7.55c.15-.2.42-.26.63-.15,3.07,1.61,6.15,3.26,9.17,4.9,1.22.67,1.76,1.44,1.59,2.28,0,.04-.02.08-.04.11l-11.48,24.82c-.03.09-.1.42.21.56,0,0,0,0,.07,0,.02,0,.05,0,.07-.01.08-.04.16-.16.22-.34,3.49-7.3,8.75-18.47,9.01-19.56.02-.09.07-.17.13-.23,3.86-3.97,11.38-11.8,12.17-12.99.09-.13.24-.22.39-.22,6.07-.28,12.34,1.08,17.65,3.79.76.32,1.72.16,2.65,0l.18-.03c8.53-1.41,17.27.88,24.69,3.3.18.06.31.21.34.39.33,1.98.47,4.01.4,6.02,0,.25-.2.45-.44.48l-2.3.26s-.44.04-.71.37c-.25.3-.34.77-.28,1.39,0,.03,0,.07,0,.1-1.19,12.22-1.03,25.52.47,39.55.01.13-.03.27-.11.37-.09.1-.21.17-.35.18-2.85.22-5.72.32-8.59.32ZM98.55,71.81c.26,0,.44.07.47.09.9.37.88,1.37.74,1.85-4.41,14.33-10.64,25.55-18.65,37.98-.22.34-.4.65-.39.92.02.4.46.76,1.33,1.09,15.61,6.03,32.67,8.58,49.36,7.39-1.46-13.89-1.6-27.07-.42-39.19-.08-.89.09-1.6.53-2.1.55-.65,1.3-.7,1.38-.7l1.83-.21c.03-1.7-.09-3.42-.35-5.09-7.25-2.35-15.73-4.53-23.93-3.17l-.18.03c-1.02.17-2.18.37-3.24-.08-5.12-2.62-11.12-3.92-16.94-3.71-1.61,2.08-10.96,11.72-12.04,12.83-.71,2.21-8.15,17.75-9.02,19.56-.14.41-.4.73-.75.88-.47.2-.9.02-.95,0-.87-.4-.9-1.33-.71-1.85l11.47-24.79c.04-.47-.66-.93-1.1-1.16-2.88-1.57-5.83-3.15-8.77-4.7l-5.3,7.19c-8.86,12.81-10.07,19.21-10.08,19.28-1.29,9.29,3.1,12.09,3.75,12.45,2.07.24,9.17,2,10.27,2.27,9.02-2.69,20.33-13.08,21.24-13.93,3.73-6.88,6.36-14.39,8.9-21.65.18-.66.51-1.12.96-1.34.21-.1.4-.13.57-.13Z"/>
    </g>
    <g>
      <path class="cls-1" d="M134.21,81.31c4.07-1.05,8.28-1.49,12.48-1.54.43,0,.88,0,1.29.12.77.24,1.37.97,1.47,1.77l6.23,30.99s.37,1.11,1.4.83c0,0,.85-.41.57-1.47s-6.56-32.42-6.56-32.42c0,0-.07-1.66-2.24-1.48,0,0-2.14.41-1.99-.74.12-.97-3.71-14.81-3.71-14.81,0,0,.88-1.01-.2-3.64,0,0-2.2-4.78-2.58-6.49,0,0,.3-.45,1.1-.53l6.99-.22s.64.02.64,1.32c0,0-.28,3.93,4.31,6.42s7.71,5.39,7.71,16.18c0,0,.86,30.9-2.99,45.9,0,0-21.52.04-23.52.63,0,0-.81,0-1.46-4.04s-.94-27.94-.08-35.48c0,0-.04-1.01,1.13-1.31Z"/>
      <path class="cls-1" d="M134.62,122.63h0c-.56,0-1.36-.78-1.96-4.46-.64-3.95-.95-28.04-.09-35.61-.02-.41.27-1.42,1.5-1.74h0c3.83-.99,7.95-1.5,12.6-1.56.5,0,.98,0,1.45.15.97.31,1.7,1.19,1.82,2.19l6.23,30.95c.04.09.25.56.72.46.13-.08.41-.33.27-.88-.27-1.07-6.31-31.16-6.57-32.44,0-.09-.04-.49-.37-.78-.29-.25-.74-.35-1.33-.3-.21.05-1.57.27-2.21-.34-.18-.17-.38-.48-.32-.96.03-.8-2.25-9.39-3.7-14.61-.04-.16,0-.34.11-.46h0s.64-.88-.29-3.12c-.08-.18-2.22-4.83-2.6-6.57-.03-.13,0-.27.07-.38.04-.07.46-.66,1.47-.75l7.02-.23c.08,0,1.16.06,1.16,1.82-.01.18-.18,3.68,4.05,5.98,4.36,2.37,7.97,5.26,7.97,16.62,0,.3.82,31.13-3.01,46.03-.06.22-.26.38-.48.38-5.96.01-21.79.14-23.38.61-.05.01-.09.02-.14.02ZM146.91,80.26c-.07,0-.14,0-.21,0-4.57.06-8.61.56-12.37,1.53h0c-.72.19-.76.71-.76.81-.86,7.6-.56,31.49.08,35.41.42,2.61.89,3.38,1.06,3.58,2.82-.52,19.66-.59,23.04-.6,3.68-14.9,2.89-45.08,2.88-45.39,0-10.84-3.23-13.46-7.45-15.75-4.82-2.62-4.58-6.72-4.57-6.9,0-.57-.16-.77-.22-.79l-6.9.23c-.27.03-.45.11-.56.19.5,1.83,2.46,6.08,2.48,6.12.91,2.22.55,3.44.29,3.93.97,3.5,3.79,13.82,3.67,14.79-.01.08,0,.1.01.11.17.16.87.17,1.39.08.93-.08,1.64.1,2.14.55.64.56.69,1.32.69,1.4.05.23,6.28,31.27,6.54,32.31.3,1.16-.42,1.85-.84,2.05-1.26.34-1.91-.59-2.09-1.12l-6.25-31.05c-.08-.65-.54-1.21-1.13-1.4-.27-.09-.58-.1-.92-.1ZM134.21,81.31h0,0Z"/>
    </g>
    <path class="cls-1" d="M27.48,120c-.07,0-.13-.01-.2-.04-.25-.11-.37-.41-.26-.66,2.55-5.84,8.46-10.31,15.81-11.94,5.64-1.25,11.84-1,20.13.81.89.19,1.78.4,2.67.61,2.38.55,4.84,1.12,7.28,1.45,3.2.44,6.45.48,9.66.14.26-.02.52.17.55.44.03.27-.17.52-.44.55-3.29.35-6.62.3-9.9-.14-2.49-.34-4.97-.92-7.37-1.47-.88-.2-1.77-.41-2.65-.6-8.14-1.78-14.22-2.03-19.7-.81-7.03,1.56-12.68,5.81-15.11,11.37-.08.19-.27.3-.46.3Z"/>
    <path class="cls-1" d="M38.17,178.19c-.1,0-.2-.03-.29-.09-10.92-7.8-21.49-16.33-31.44-25.35-.03-.03-.06-.06-.08-.1-4.58-7.1-4.13-16.97,1.06-23.48,4.07-5.11,10.1-7.45,14.43-8.52,5.45-1.34,11.15-1.49,16.67-1.63,12.42-.32,23.54-.69,34.63-1.98,3.19-.37,6.78-.97,8.91-3.38.18-.21.5-.23.71-.04.21.18.23.5.04.71-2.37,2.67-6.17,3.31-9.54,3.71-11.13,1.3-22.28,1.67-34.66,1.99-5.53.14-11.18.29-16.52,1.6-4.19,1.03-9.99,3.29-13.89,8.17-4.92,6.16-5.35,15.51-1.03,22.25,9.9,8.98,20.43,17.47,31.3,25.24.22.16.28.47.12.7-.1.14-.25.21-.41.21Z"/>
    <path class="cls-1" d="M46.24,148.32c-.11,0-.21-.03-.3-.1-3.46-2.62-7.1-5.09-10.82-7.33-3.13-1.89-6.8-3.92-10.76-3.96-.28,0-.5-.23-.5-.51s.28-.49.5-.49c4.21.04,8.03,2.14,11.27,4.1,3.75,2.27,7.42,4.75,10.9,7.39.22.17.26.48.1.7-.1.13-.25.2-.4.2Z"/>
    <path class="cls-1" d="M32.88,229.71h-.01c-.28,0-.49-.24-.49-.51.65-26.13,4.71-52.1,12.06-77.19,1-3.41,3.85-11.26,6.27-13.75,1.68-1.72,4.75-2.77,7.46-3.7.78-.27,1.52-.52,2.17-.77,5.04-1.96,8.69-2.81,12.56-3.7,3.29-.76,6.69-1.54,11.09-3.08.73-.26,1.53-.5,2.34-.75,3.5-1.07,7.47-2.28,8.38-5.38.08-.26.35-.42.62-.34.26.08.42.36.34.62-1.07,3.61-5.31,4.9-9.05,6.05-.8.24-1.58.48-2.3.74-4.45,1.56-7.88,2.35-11.19,3.12-3.83.88-7.45,1.72-12.42,3.65-.65.25-1.41.51-2.21.79-2.48.85-5.56,1.9-7.07,3.45-2.27,2.33-5.09,10.13-6.03,13.33-7.32,25-11.37,50.88-12.02,76.93,0,.27-.23.49-.5.49Z"/>
    <path class="cls-1" d="M56.43,233.5c-.08,0-.16-.02-.23-.06-.25-.13-.34-.43-.21-.67,12.97-25.12,21.06-52.11,24.04-80.22.03-.27.28-.47.55-.44.27.03.47.28.44.55-2.99,28.24-11.11,55.35-24.15,80.57-.09.17-.26.27-.44.27Z"/>
    <path class="cls-1" d="M45.85,232.77h0c-4.57-.06-9.15-1.14-13.26-3.12-.25-.12-.35-.42-.23-.67.12-.25.42-.35.67-.23,3.98,1.92,8.42,2.96,12.84,3.02.28,0,.5.23.49.51,0,.27-.23.49-.5.49Z"/>
    <path class="cls-1" d="M55.94,233.78c-1.75,0-3.49-.24-5.18-.71-.27-.07-.42-.35-.35-.62.07-.27.35-.42.62-.35,1.73.48,3.52.7,5.32.66h.01c.27,0,.49.22.5.49,0,.28-.21.5-.49.51-.14,0-.29,0-.43,0Z"/>
    <path class="cls-1" d="M50.7,233.11h-.02c-.28-.01-.49-.25-.48-.52l.54-12.38c.02-.38.03-.77,0-1.14-1.58,4.31-2.81,8.8-4.01,13.15-.07.27-.34.42-.62.35-.27-.07-.42-.35-.35-.62,1.25-4.56,2.55-9.27,4.24-13.78.06-.15.23-.53.58-.67.19-.08.39-.07.57.02.33.15.41.48.45.6.18.72.15,1.44.12,2.13l-.54,12.38c-.01.27-.23.48-.5.48Z"/>
    <path class="cls-1" d="M20.31,264.43c-.86,0-1.69-.19-2.39-.73-.88-.68-1.29-1.75-1.62-2.6-.09-.23-.28-.72-.04-1.18.21-.38.6-.52.84-.6,1.93-.67,4.19-1.52,6.33-2.71,4.29-2.38,7.94-6.06,10.56-10.62,2.4-4.19,3.93-9.18,4.42-14.44.03-.27.26-.47.54-.45.27.03.48.27.45.54-.5,5.4-2.08,10.53-4.55,14.85-2.71,4.72-6.49,8.53-10.94,11-2.23,1.24-4.64,2.14-6.49,2.78-.17.06-.26.1-.28.13,0,.02,0,.1.09.34.3.78.64,1.66,1.3,2.17,1.01.79,2.55.54,3.91.21.87-.21,1.73-.45,2.6-.68,3.34-.9,6.79-1.84,10.31-1.66,2.01.1,3.99.56,5.91,1l1.04.24c.96.22,1.88.39,2.7.14.58-.18,1.15-.6,1.64-1.21,1.01-1.24,1.44-2.92,1.17-4.5-.11-.64-.33-1.25-.57-1.9-.31-.87-.63-1.76-.69-2.73-.08-1.41.4-2.71.98-4.14,1.99-4.87,4.21-9.73,6.35-14.43l.04-.09c.12-.25.42-.36.66-.25.25.11.36.41.25.66l-.04.09c-2.14,4.69-4.35,9.54-6.34,14.4-.54,1.32-.98,2.5-.91,3.71.05.82.33,1.61.63,2.45.24.66.48,1.35.61,2.07.33,1.86-.19,3.84-1.38,5.3-.62.76-1.35,1.29-2.12,1.53-1.05.33-2.12.13-3.21-.12l-1.05-.24c-1.87-.43-3.81-.88-5.73-.98-3.37-.16-6.74.75-10,1.62-.87.24-1.75.47-2.62.69-.77.19-1.58.35-2.37.35Z"/>
    <path class="cls-1" d="M44.17,263.14c-.24,0-.46-.18-.49-.43-.96-6.61-4.14-12.79-8.98-17.4-.2-.19-.21-.51-.02-.71.19-.2.51-.21.71-.02,5,4.76,8.29,11.15,9.28,17.98.04.27-.15.53-.42.57-.02,0-.05,0-.07,0Z"/>
    <path class="cls-1" d="M106.82,163.6h0l-27.68-.45c-.28,0-.5-.23-.49-.51,0-.28.22-.49.51-.49l27.68.45c.28,0,.5.23.49.51,0,.27-.23.49-.5.49Z"/>
    <path class="cls-1" d="M76.34,198.01c-.31,0-.56-.19-.67-.28l-3.67-2.85c-.22-.17-.26-.48-.09-.7.17-.22.48-.26.7-.09l3.67,2.85s.01,0,.02.01t0,0c2.27-2.96,4.45-6.04,6.51-9.17-1.35-2.4-2.81-4.77-4.37-7.04-.13-.2-.11-.46.05-.63.17-.17.43-.2.63-.07l6.66,4.3,2.84-3.73s.12-.16.13-.2c-.01-.02-.1-.12-.14-.16-3.26-3.63-6.83-7.03-10.63-10.09-.21-.17-.25-.49-.08-.7.17-.22.49-.25.7-.08,3.84,3.09,7.45,6.52,10.74,10.2.14.16.37.41.39.78.02.38-.2.67-.33.85l-3.12,4.1c-.16.21-.45.26-.67.12l-5.03-3.25c1.14,1.76,2.22,3.56,3.23,5.38.09.16.08.36-.02.52-2.11,3.23-4.37,6.42-6.71,9.48-.09.12-.29.38-.62.43-.05,0-.09.01-.14.01Z"/>
    <path class="cls-1" d="M93.16,228.39c-.21,0-.42-.03-.63-.11-1.38-.51-1.46-2.29-1.49-3.15-.14-3.21-.92-6.38-1.67-9.46-.94-3.83-1.9-7.78-4.04-11.15-2.04-3.22-5.03-5.72-7.92-8.14-.21-.18-.24-.49-.06-.7.18-.21.5-.24.7-.06,2.95,2.47,6,5.02,8.13,8.38,2.22,3.51,3.21,7.55,4.16,11.45.76,3.12,1.55,6.35,1.7,9.65.04.98.18,2.01.84,2.26.44.17.95-.11,1.25-.42.38-.42.59-1.01.77-1.58,1.04-3.3,1.57-6.72,1.56-10.19,0-.52-.01-1.04-.02-1.57-.05-2.49-.11-5.06.99-7.36.55-1.16,1.36-2.15,2.15-3.12.85-1.05,1.66-2.04,2.15-3.21.75-1.79.63-3.95-.3-5.64-.93-1.7-2.7-2.95-4.61-3.27-.61-.1-1.23-.12-1.89-.14-1.03-.03-2.1-.06-3.12-.45-2.67-1.01-3.86-3.91-4.77-6.55-.09-.26.05-.54.31-.63s.54.05.63.31c.83,2.42,1.91,5.08,4.17,5.93.86.33,1.8.35,2.8.38.66.02,1.35.04,2.03.15,2.24.38,4.22,1.79,5.32,3.78,1.09,1.99,1.22,4.42.35,6.51-.55,1.3-1.44,2.4-2.3,3.46-.78.96-1.52,1.87-2.02,2.92-1,2.08-.94,4.54-.89,6.91.01.53.02,1.07.02,1.59,0,3.56-.54,7.09-1.61,10.49-.21.68-.47,1.39-.98,1.96-.4.44-1.04.8-1.71.8Z"/>
    <path class="cls-1" d="M101.7,201.53c-.09,0-.19-.03-.27-.08-5.39-3.48-12.54-3.81-18.21-.82-.24.13-.55.04-.67-.21-.13-.24-.04-.55.21-.67,5.99-3.15,13.54-2.81,19.22.87.23.15.3.46.15.69-.1.15-.26.23-.42.23Z"/>
    <path class="cls-1" d="M117.86,178.54s-.02,0-.02,0c-10.55-.49-21.29-1.04-31.91-1.63-.28-.02-.49-.25-.47-.53.02-.27.22-.49.53-.47,10.62.6,21.35,1.14,31.9,1.63.28.01.49.25.48.52-.01.27-.23.48-.5.48Z"/>
    <path class="cls-1" d="M170.54,134.56c-1.44,0-3.01-.11-4.52-.57-2.09-.64-3.75-1.87-4.67-3.47-.81-1.42-1.03-3.09-1.13-4.68-.23-3.38-.07-6.58.45-9.25,0-.03.02-.07.03-.1.45-1.06,1.37-1.98,2.59-2.58,1.11-.55,2.34-.78,3.39-.94,3.23-.48,6.19-.41,8.8.22.55.13,1.1.29,1.65.45.92.27,1.8.52,2.71.65.58.08,1.18.12,1.77.15.75.04,1.53.08,2.29.23,1.72.33,3.04,1.21,3.62,2.42.34.71.42,1.49.46,2.16.08,1.26.06,2.53-.06,3.79-.15,1.57-.53,3.82-2.18,5.2-1.48,1.24-3.44,1.37-5.49,1.33-.21.76-.54,1.49-1.04,2.15-1.81,2.36-5.15,2.74-7.5,2.82-.38.01-.77.02-1.17.02ZM161.63,116.84c-.5,2.58-.64,5.67-.42,8.94.1,1.47.29,3,1,4.25.79,1.38,2.24,2.45,4.09,3.01,1.79.54,3.72.56,5.37.51,2.15-.07,5.19-.4,6.74-2.43,1.12-1.46,1.22-3.48,1.18-5.07,0-.39-.03-.77-.04-1.16-.07-1.52-.14-3.08.25-4.6.33-1.28,1.27-2.78,2.81-2.81.94.02,1.89.6,2.38,1.58.45.89.48,1.87.46,2.63-.05,1.75-.55,3-1.48,3.73-1,.78-2.34.8-3.38.75.01.75,0,1.58-.13,2.41,1.79,0,3.45-.11,4.64-1.1,1.04-.87,1.62-2.3,1.82-4.52.11-1.2.13-2.43.05-3.63-.04-.58-.1-1.24-.36-1.79-.63-1.3-2.25-1.74-2.91-1.87-.7-.13-1.41-.17-2.16-.22-.61-.03-1.23-.07-1.85-.16-.98-.14-1.93-.42-2.84-.68-.53-.15-1.06-.31-1.6-.44-2.49-.6-5.33-.66-8.42-.2-.98.15-2.11.36-3.1.85-.99.49-1.73,1.2-2.09,2.02ZM180.56,125.17c1.08.06,2.08.02,2.8-.53.69-.53,1.06-1.53,1.1-2.97.02-.64,0-1.47-.35-2.15-.26-.52-.81-1.03-1.45-1.03,0,0-.01,0-.02,0-.92.02-1.59,1.05-1.85,2.06-.36,1.37-.29,2.8-.22,4.3,0,.11,0,.21.01.32Z"/>
    <path class="cls-1" d="M172.02,120.66c-1.09,0-2.18-.04-3.26-.13-1.46-.11-3.17-.32-4.76-.97-1.03-.42-1.74-.95-2.17-1.63-.52-.8-.65-2.05.1-2.89.18-.2.5-.22.71-.04.21.18.22.5.04.71-.41.45-.3,1.2,0,1.68.32.49.88.9,1.71,1.24,1.47.6,3.08.79,4.46.9,1.57.12,3.16.15,4.74.09,1.85-.07,3.91-.32,5.22-1.65.52-.53.93-1.4.59-2.07-.23-.46-.78-.77-1.71-1-.27-.06-.43-.33-.37-.6.07-.27.33-.43.6-.37.78.19,1.88.55,2.37,1.52.56,1.11.02,2.42-.77,3.22-1.56,1.59-3.97,1.87-5.89,1.95-.53.02-1.07.03-1.6.03Z"/>
    <g>
      <ellipse class="cls-1" cx="171.19" cy="117.73" rx="8.25" ry="2.12"/>
      <path class="cls-1" d="M171.19,120.35c-4.21,0-8.75-.82-8.75-2.62s4.54-2.62,8.75-2.62,8.75.82,8.75,2.62-4.54,2.62-8.75,2.62ZM171.19,116.1c-5.11,0-7.75,1.14-7.75,1.62s2.64,1.62,7.75,1.62,7.75-1.14,7.75-1.62-2.64-1.62-7.75-1.62Z"/>
    </g>
    <path class="cls-1" d="M182.09,140.25c-1.64,0-3.25-.04-4.82-.1-8.23-.29-16.54-1-24.7-2.12-1.81-.25-3.85-.64-5.03-2.14-.65-.83-.92-1.95-.74-3.08.18-1.13.79-2.11,1.67-2.69,1.09-.72,2.39-.83,3.74-.9,2.97-.13,5.98-.16,8.96-.07.28,0,.49.24.49.52,0,.28-.24.49-.51.48-2.96-.09-5.94-.07-8.88.07-1.2.05-2.35.15-3.23.73-.64.43-1.09,1.16-1.23,2.01-.14.85.06,1.69.54,2.3.96,1.21,2.69,1.54,4.38,1.77,8.13,1.11,16.41,1.82,24.6,2.11,3.94.14,8.16.2,12.34-.3,2.17-.26,3.41-.91,3.81-1.98.43-1.17-.4-2.52-1.45-3.16-1.2-.73-2.73-.86-4.07-.97l-9.03-.77c-.27-.02-.48-.27-.46-.54.02-.28.27-.48.54-.46l9.03.77c1.46.12,3.11.26,4.5,1.11,1.38.83,2.5,2.65,1.87,4.36-.54,1.46-2.05,2.32-4.63,2.63-2.58.31-5.16.41-7.67.41Z"/>
    <path class="cls-1" d="M179.12,138.35c-8.9,0-17.82-.64-26.62-1.92-1-.14-2.24-.32-3.32-.88-1.24-.62-2.09-1.68-2.28-2.82-.05-.27.14-.53.41-.58.27-.05.53.14.58.41.14.83.79,1.61,1.74,2.09.87.44,1.84.61,3.02.78,11.28,1.63,22.76,2.22,34.14,1.75,1.54-.06,3.05-.15,4.51-.46.88-.19,2.14-.79,1.98-1.68-.05-.27.13-.53.41-.58.27-.05.53.13.58.41.26,1.5-1.2,2.5-2.76,2.83-1.53.33-3.09.41-4.68.48-2.57.11-5.14.16-7.71.16Z"/>
    <path class="cls-1" d="M147.49,137.38c-.05,0-.1,0-.15,0-.91-.02-2.04-.05-2.96-.66-1.22-.82-1.59-2.37-1.76-3.47-.2-1.33-.28-2.67-.21-4.01.03-.73.14-1.48.66-2.04.47-.5,1.13-.68,1.72-.79.73-.13,1.47-.2,2.21-.21.75,0,1.78.06,2.52.74.8.74.91,1.84.95,2.91.01.28-.2.51-.48.52-.26.03-.51-.2-.52-.48-.03-.86-.11-1.73-.63-2.21-.37-.34-.96-.48-1.83-.48-.68,0-1.36.07-2.03.19-.43.08-.9.2-1.17.49-.3.32-.37.86-.39,1.4-.06,1.27,0,2.55.2,3.81.14.91.43,2.19,1.33,2.79.62.42,1.43.47,2.42.49.44,0,.6-.06.64-.12.15-.23.46-.29.69-.14.23.15.29.46.14.69-.34.52-.98.57-1.35.57Z"/>
    <path class="cls-1" d="M147.18,133.17c-.06,0-.12,0-.17-.03-.71-.26-.97-1.01-1.1-1.55-.2-.84-.32-1.7-.35-2.56,0-.28.21-.51.48-.52.27-.02.51.21.52.48.03.8.14,1.59.32,2.37.12.5.27.77.47.85.26.1.39.38.3.64-.08.2-.27.33-.47.33Z"/>
    <path class="cls-1" d="M177.99,114.86s-.01,0-.02,0c-.28-.01-.49-.25-.48-.52.29-6.25.58-12.71,1.67-19.01,1.36-7.88,3.97-15.57,6.49-23,2.21-6.52,4.5-13.25,5.92-20.07.92-4.38,1.69-10.02-.45-14.79-1.57-3.49-4.75-6.52-8.96-8.52-3.88-1.85-8.22-2.7-12.34-3.35-5.36-.85-10.83-1.43-16.25-1.73-.28-.02-.49-.25-.47-.53.02-.27.23-.48.53-.47,5.46.3,10.96.89,16.35,1.74,4.19.66,8.61,1.54,12.61,3.44,4.42,2.1,7.77,5.31,9.44,9.01,2.27,5.04,1.47,10.88.52,15.41-1.44,6.88-3.73,13.65-5.95,20.19-2.51,7.4-5.11,15.05-6.45,22.85-1.08,6.24-1.37,12.66-1.66,18.88-.01.27-.23.48-.5.48Z"/>
    <g>
      <path class="cls-1" d="M27.07,169.96L.79,239.52s-1.38,4.12,1.91,4.82c0,0,3.14,1.11,4.86-2.95l25.28-67.4-5.76-4.03Z"/>
      <path class="cls-1" d="M3.65,244.98c-.66,0-1.11-.15-1.12-.16-.91-.19-1.62-.68-2.06-1.45-.93-1.63-.19-3.91-.16-4.01l26.29-69.58c.05-.14.17-.26.32-.3.14-.04.31-.02.43.07l5.76,4.03c.19.13.26.37.18.58l-25.28,67.4c-1.23,2.89-3.16,3.4-4.37,3.4ZM27.31,170.74L1.25,239.7s-.63,1.94.08,3.18c.29.51.77.83,1.46.98.17.05,2.79.9,4.3-2.66l25.13-67.02-4.92-3.44Z"/>
    </g>
    <g>
      <path class="cls-1" d="M111.38,177.96s.7.43-.16,4.01l-18.75,72.08s-.48,3.51,2.27,4.12c0,0,3.22,1.07,4.4-2.79l19.68-65.78s1.92-9.83,8.39-8.44l5.36.66c.47.06,1.06.06,1.29-.35-3.71-1.03-7.38-2.2-11-3.52-.33-.12-.66-.24-1.01-.28-.38-.04-.77.04-1.15.09-2.96.44-5.97-.14-8.96-.16-.24,0-.5.01-.65.19s0,.55.29.15Z"/>
      <path class="cls-1" d="M95.73,258.81c-.65,0-1.12-.15-1.15-.16-2.49-.55-2.8-3.29-2.61-4.67l18.76-72.14c.45-1.86.44-2.78.38-3.21-.02,0-.04,0-.06,0-.22-.03-.4-.18-.49-.39-.1-.25-.05-.54.13-.75.32-.38.84-.37,1.04-.37,1.08,0,2.16.09,3.21.16,1.88.13,3.81.28,5.67,0l.15-.02c.36-.05.72-.11,1.11-.07.41.04.77.17,1.12.3,3.61,1.32,7.3,2.5,10.98,3.51.15.04.27.15.33.29.06.14.05.3-.02.44-.43.77-1.45.64-1.79.6l-5.36-.66c-1.37-.29-2.6-.07-3.68.64-3.08,2.03-4.15,7.35-4.16,7.4l-19.69,65.83c-.42,1.39-1.15,2.36-2.15,2.88-.61.32-1.23.41-1.74.41ZM112.02,178.12c.19.61.21,1.76-.32,3.97l-18.75,72.09c0,.07-.37,3.01,1.9,3.51.06.02,1.15.36,2.17-.18.75-.39,1.3-1.16,1.64-2.27l19.68-65.78c.04-.19,1.15-5.74,4.58-8,1.32-.87,2.8-1.13,4.4-.79l3.42.42c-2.71-.81-5.4-1.71-8.05-2.67-.32-.12-.61-.22-.89-.25-.27-.03-.56.02-.87.07l-.16.02c-1.97.29-3.96.14-5.89,0-.94-.07-1.91-.14-2.86-.16Z"/>
    </g>
    <g>
      <polygon class="cls-1" points="104.69 177.45 106.77 191.03 110.11 181.17 109.79 177.96 104.69 177.45"/>
      <path class="cls-1" d="M106.77,191.53s-.03,0-.04,0c-.23-.02-.42-.19-.45-.42l-2.09-13.58c-.02-.15.03-.31.13-.42.11-.11.26-.17.41-.15l5.11.51c.24.02.42.21.45.45l.32,3.21c0,.07,0,.14-.02.21l-3.34,9.86c-.07.21-.26.34-.47.34ZM105.28,178.01l1.68,10.92,2.65-7.82-.27-2.7-4.06-.41Z"/>
    </g>
    <g>
      <path class="cls-1" d="M110.71,222.24l3.02,21.17s.67,2.41,4.15,2.41c0,0,2.26-.37,2.37-3.32l-3.61-39.79-5.94,19.52Z"/>
      <path class="cls-1" d="M117.95,246.32c-3.89,0-4.67-2.66-4.7-2.77l-3.04-21.24c0-.07,0-.15.02-.22l5.94-19.52c.07-.23.29-.38.53-.35.24.02.43.21.45.45l3.61,39.79c-.09,2.72-1.86,3.7-2.79,3.85h-.01ZM111.22,222.28l3.01,21.07s.62,1.98,3.66,1.98c0,0,1.78-.35,1.87-2.83l-3.37-37.18-5.16,16.96Z"/>
    </g>
    <g>
      <path class="cls-1" d="M155.86,181.63s1.62-.5,2.42,3.42l17.91,70.82s.83,3.86,4.71,3.23c0,0,3.36-.31,2.64-4.5s-16.48-70.84-16.48-70.84c0,0-.74-3.18,1.57-5.19,0,0,2.89-1.76,3.41-3.44,0,0-5.28,4.67-16.17,6.51Z"/>
      <path class="cls-1" d="M180.06,259.67c-2.79,0-4.07-2.34-4.36-3.7l-17.9-70.8c-.42-2.04-1.03-2.71-1.36-2.93-.2-.13-.36-.14-.41-.14-.03,0-.05,0-.08.01-.26.05-.51-.12-.57-.38s.09-.52.34-.59c.02,0,.08-.02.17-.03,10.54-1.8,15.77-6.32,15.83-6.37.17-.15.41-.17.6-.04s.27.35.21.57c-.57,1.84-3.5,3.64-3.63,3.72-1.99,1.75-1.35,4.62-1.34,4.65.64,2.72,15.77,66.71,16.49,70.87.27,1.55.05,2.8-.66,3.72-.93,1.22-2.37,1.36-2.43,1.37-.31.05-.6.07-.88.07ZM157.47,181.84c.57.64,1,1.68,1.3,3.11l17.9,70.8c.04.16.78,3.41,4.14,2.86.04,0,1.11-.12,1.77-.99.52-.69.68-1.67.46-2.93-.71-4.13-16.32-70.15-16.47-70.81-.03-.14-.78-3.5,1.73-5.68.14-.08.31-.2.5-.33-2.46,1.34-6.21,2.95-11.32,3.98Z"/>
    </g>
  </g>
</svg>